<?xml version="1.0" encoding="UTF-8"?>
<svg version="1.1" xmlns="http://www.w3.org/2000/svg" width="512" height="512">
<path d="M0 0 C168.96 0 337.92 0 512 0 C512 168.96 512 337.92 512 512 C343.04 512 174.08 512 0 512 C0 343.04 0 174.08 0 0 Z " fill="#010101" transform="translate(0,0)"/>
<path d="M0 0 C59.73 0 119.46 0 181 0 C181 3.63 181 7.26 181 11 C189.25 11 197.5 11 206 11 C206 13.31 206 15.62 206 18 C208.31 18 210.62 18 213 18 C213 22.62 213 27.24 213 32 C216.63 32 220.26 32 224 32 C224 42.56 224 53.12 224 64 C226.31 64 228.62 64 231 64 C231 85.12 231 106.24 231 128 C233.31 128 235.62 128 238 128 C238 165.62 238 203.24 238 242 C235.69 242 233.38 242 231 242 C231 244.31 231 246.62 231 249 C218.13 249 205.26 249 192 249 C192 246.69 192 244.38 192 242 C196.62 242 201.24 242 206 242 C206 238.37 206 234.74 206 231 C208.31 231 210.62 231 213 231 C213 199.32 213 167.64 213 135 C210.69 135 208.38 135 206 135 C206 124.44 206 113.88 206 103 C203.69 103 201.38 103 199 103 C199 100.69 199 98.38 199 96 C196.69 96 194.38 96 192 96 C192 93.69 192 91.38 192 89 C126 89 60 89 -8 89 C-8 91.31 -8 93.62 -8 96 C-11.3 96 -14.6 96 -18 96 C-18 104.25 -18 112.5 -18 121 C-20.31 121 -22.62 121 -25 121 C-25 139.81 -25 158.62 -25 178 C-27.31 178 -29.62 178 -32 178 C-32 195.49 -32 212.98 -32 231 C-29.69 231 -27.38 231 -25 231 C-25 234.63 -25 238.26 -25 242 C-19.39 242 -13.78 242 -8 242 C-8 244.31 -8 246.62 -8 249 C-21.86 249 -35.72 249 -50 249 C-50 240.75 -50 232.5 -50 224 C-52.31 224 -54.62 224 -57 224 C-57 205.19 -57 186.38 -57 167 C-54.69 167 -52.38 167 -50 167 C-50 133.01 -50 99.02 -50 64 C-46.7 64 -43.4 64 -40 64 C-40 57.07 -40 50.14 -40 43 C-37.36 43 -34.72 43 -32 43 C-32 37.06 -32 31.12 -32 25 C-29.69 25 -27.38 25 -25 25 C-25 22.69 -25 20.38 -25 18 C-22.69 18 -20.38 18 -18 18 C-18 15.69 -18 13.38 -18 11 C-12.06 11 -6.12 11 0 11 C0 7.37 0 3.74 0 0 Z " fill="#790301" transform="translate(164,32)"/>
<path d="M0 0 C10.56 0 21.12 0 32 0 C32 3.63 32 7.26 32 11 C35.63 11 39.26 11 43 11 C43 13.31 43 15.62 43 18 C53.56 18 64.12 18 75 18 C75 22.62 75 27.24 75 32 C77.31 32 79.62 32 82 32 C82 35.63 82 39.26 82 43 C84.31 43 86.62 43 89 43 C89 64.12 89 85.24 89 107 C86.69 107 84.38 107 82 107 C82 113.93 82 120.86 82 128 C79.69 128 77.38 128 75 128 C75 133.94 75 139.88 75 146 C71.37 146 67.74 146 64 146 C64 148.31 64 150.62 64 153 C61.69 153 59.38 153 57 153 C57 155.31 57 157.62 57 160 C52.38 160 47.76 160 43 160 C43 163.63 43 167.26 43 171 C24.19 171 5.38 171 -14 171 C-14 167.37 -14 163.74 -14 160 C-16.31 160 -18.62 160 -21 160 C-21 157.69 -21 155.38 -21 153 C-23.64 153 -26.28 153 -29 153 C-29 150.69 -29 148.38 -29 146 C-34.61 146 -40.22 146 -46 146 C-46 140.06 -46 134.12 -46 128 C-48.31 128 -50.62 128 -53 128 C-53 104.57 -53 81.14 -53 57 C-50.69 57 -48.38 57 -46 57 C-46 48.75 -46 40.5 -46 32 C-43.69 32 -41.38 32 -39 32 C-39 29.69 -39 27.38 -39 25 C-35.7 25 -32.4 25 -29 25 C-29 22.69 -29 20.38 -29 18 C-24.05 18 -19.1 18 -14 18 C-14 15.69 -14 13.38 -14 11 C-9.38 11 -4.76 11 0 11 C0 7.37 0 3.74 0 0 Z " fill="#9C0401" transform="translate(345,295)"/>
<path d="M0 0 C59.73 0 119.46 0 181 0 C181 3.63 181 7.26 181 11 C189.25 11 197.5 11 206 11 C206 13.31 206 15.62 206 18 C208.31 18 210.62 18 213 18 C213 22.62 213 27.24 213 32 C216.63 32 220.26 32 224 32 C224 42.56 224 53.12 224 64 C136.88 64 49.76 64 -40 64 C-40 57.07 -40 50.14 -40 43 C-37.36 43 -34.72 43 -32 43 C-32 37.06 -32 31.12 -32 25 C-29.69 25 -27.38 25 -25 25 C-25 22.69 -25 20.38 -25 18 C-22.69 18 -20.38 18 -18 18 C-18 15.69 -18 13.38 -18 11 C-12.06 11 -6.12 11 0 11 C0 7.37 0 3.74 0 0 Z " fill="#B60901" transform="translate(164,32)"/>
<path d="M0 0 C55.11 0 110.22 0 167 0 C167 16.5 167 33 167 50 C169.31 50 171.62 50 174 50 C174 60.56 174 71.12 174 82 C116.58 82 59.16 82 0 82 C0 54.94 0 27.88 0 0 Z " fill="#FF5201" transform="translate(171,160)"/>
<path d="M0 0 C8.25 0 16.5 0 25 0 C25 2.31 25 4.62 25 7 C33.25 7 41.5 7 50 7 C50 28.12 50 49.24 50 71 C47.36 71 44.72 71 42 71 C42 108.62 42 146.24 42 185 C44.64 185 47.28 185 50 185 C50 189.62 50 194.24 50 199 C47.36 199 44.72 199 42 199 C42 201.31 42 203.62 42 206 C38.7 206 35.4 206 32 206 C32 209.63 32 213.26 32 217 C19.13 217 6.26 217 -7 217 C-7 211.06 -7 205.12 -7 199 C-9.31 199 -11.62 199 -14 199 C-14 188.44 -14 177.88 -14 167 C-16.64 167 -19.28 167 -22 167 C-22 135.32 -22 103.64 -22 71 C-19.36 71 -16.72 71 -14 71 C-14 58.13 -14 45.26 -14 32 C-11.69 32 -9.38 32 -7 32 C-7 27.38 -7 22.76 -7 18 C-4.69 18 -2.38 18 0 18 C0 12.06 0 6.12 0 0 Z " fill="#B50901" transform="translate(50,89)"/>
<path d="M0 0 C5.94 0 11.88 0 18 0 C18 2.31 18 4.62 18 7 C20.31 7 22.62 7 25 7 C25 12.94 25 18.88 25 25 C27.31 25 29.62 25 32 25 C32 35.56 32 46.12 32 57 C35.63 57 39.26 57 43 57 C43 99.24 43 141.48 43 185 C39.37 185 35.74 185 32 185 C32 191.93 32 198.86 32 206 C29.69 206 27.38 206 25 206 C25 209.63 25 213.26 25 217 C12.13 217 -0.74 217 -14 217 C-14 213.37 -14 209.74 -14 206 C-16.31 206 -18.62 206 -21 206 C-21 203.69 -21 201.38 -21 199 C-24.63 199 -28.26 199 -32 199 C-32 196.69 -32 194.38 -32 192 C-28.37 192 -24.74 192 -21 192 C-21 139.2 -21 86.4 -21 32 C-24.63 32 -28.26 32 -32 32 C-32 23.75 -32 15.5 -32 7 C-21.44 7 -10.88 7 0 7 C0 4.69 0 2.38 0 0 Z " fill="#B60901" transform="translate(441,89)"/>
<path d="M0 0 C10.56 0 21.12 0 32 0 C32 3.63 32 7.26 32 11 C36.62 11 41.24 11 46 11 C46 13.31 46 15.62 46 18 C54.25 18 62.5 18 71 18 C71 22.62 71 27.24 71 32 C73.31 32 75.62 32 78 32 C78 40.25 78 48.5 78 57 C81.3 57 84.6 57 88 57 C88 67.56 88 78.12 88 89 C90.64 89 93.28 89 96 89 C96 91.31 96 93.62 96 96 C93.36 96 90.72 96 88 96 C88 106.56 88 117.12 88 128 C84.7 128 81.4 128 78 128 C78 133.94 78 139.88 78 146 C75.69 146 73.38 146 71 146 C71 148.31 71 150.62 71 153 C68.69 153 66.38 153 64 153 C64 155.31 64 157.62 64 160 C58.06 160 52.12 160 46 160 C46 163.63 46 167.26 46 171 C28.18 171 10.36 171 -8 171 C-8 167.37 -8 163.74 -8 160 C-13.61 160 -19.22 160 -25 160 C-25 157.69 -25 155.38 -25 153 C-1.57 153 21.86 153 46 153 C46 150.69 46 148.38 46 146 C49.3 146 52.6 146 56 146 C56 143.69 56 141.38 56 139 C58.64 139 61.28 139 64 139 C64 122.5 64 106 64 89 C34.63 89 5.26 89 -25 89 C-25 86.69 -25 84.38 -25 82 C1.73 82 28.46 82 56 82 C56 79.69 56 77.38 56 75 C29.27 75 2.54 75 -25 75 C-25 71.37 -25 67.74 -25 64 C-1.57 64 21.86 64 46 64 C46 61.69 46 59.38 46 57 C43.69 57 41.38 57 39 57 C39 54.69 39 52.38 39 50 C36.69 50 34.38 50 32 50 C32 47.69 32 45.38 32 43 C29.36 43 26.72 43 24 43 C24 45.31 24 47.62 24 50 C10.14 50 -3.72 50 -18 50 C-18 47.69 -18 45.38 -18 43 C-20.31 43 -22.62 43 -25 43 C-25 45.31 -25 47.62 -25 50 C-27.31 50 -29.62 50 -32 50 C-32 68.81 -32 87.62 -32 107 C-29.69 107 -27.38 107 -25 107 C-25 111.62 -25 116.24 -25 121 C-22.69 121 -20.38 121 -18 121 C-18 123.31 -18 125.62 -18 128 C-14.7 128 -11.4 128 -8 128 C-8 131.63 -8 135.26 -8 139 C-5.36 139 -2.72 139 0 139 C0 141.31 0 143.62 0 146 C-13.2 146 -26.4 146 -40 146 C-40 140.06 -40 134.12 -40 128 C-43.3 128 -46.6 128 -50 128 C-50 117.44 -50 106.88 -50 96 C-52.31 96 -54.62 96 -57 96 C-57 83.13 -57 70.26 -57 57 C-54.69 57 -52.38 57 -50 57 C-50 48.75 -50 40.5 -50 32 C-46.7 32 -43.4 32 -40 32 C-40 29.69 -40 27.38 -40 25 C-37.36 25 -34.72 25 -32 25 C-32 22.69 -32 20.38 -32 18 C-24.08 18 -16.16 18 -8 18 C-8 15.69 -8 13.38 -8 11 C-5.36 11 -2.72 11 0 11 C0 7.37 0 3.74 0 0 Z " fill="#920401" transform="translate(132,295)"/>
<path d="M0 0 C16.5 0 33 0 50 0 C50 2.31 50 4.62 50 7 C68.48 7 86.96 7 106 7 C106 4.69 106 2.38 106 0 C121.51 0 137.02 0 153 0 C153 2.31 153 4.62 153 7 C148.05 7 143.1 7 138 7 C138 9.31 138 11.62 138 14 C132.39 14 126.78 14 121 14 C121 17.63 121 21.26 121 25 C118.69 25 116.38 25 114 25 C114 31.93 114 38.86 114 46 C111.36 46 108.72 46 106 46 C106 49.63 106 53.26 106 57 C102.7 57 99.4 57 96 57 C96 69.87 96 82.74 96 96 C93.69 96 91.38 96 89 96 C89 106.56 89 117.12 89 128 C91.31 128 93.62 128 96 128 C96 132.62 96 137.24 96 142 C99.3 142 102.6 142 106 142 C106 147.94 106 153.88 106 160 C89.83 160 73.66 160 57 160 C57 151.75 57 143.5 57 135 C59.31 135 61.62 135 64 135 C64 113.88 64 92.76 64 71 C61.69 71 59.38 71 57 71 C57 66.38 57 61.76 57 57 C54.69 57 52.38 57 50 57 C50 48.75 50 40.5 50 32 C47.36 32 44.72 32 42 32 C42 29.69 42 27.38 42 25 C38.7 25 35.4 25 32 25 C32 21.37 32 17.74 32 14 C29.69 14 27.38 14 25 14 C25 11.69 25 9.38 25 7 C16.75 7 8.5 7 0 7 C0 4.69 0 2.38 0 0 Z " fill="#930401" transform="translate(178,281)"/>
<path d="M0 0 C2.31 0 4.62 0 7 0 C7 2.31 7 4.62 7 7 C20.86 7 34.72 7 49 7 C49 4.69 49 2.38 49 0 C51.64 0 54.28 0 57 0 C57 2.31 57 4.62 57 7 C59.31 7 61.62 7 64 7 C64 9.31 64 11.62 64 14 C66.31 14 68.62 14 71 14 C71 16.31 71 18.62 71 21 C47.57 21 24.14 21 0 21 C0 24.63 0 28.26 0 32 C26.73 32 53.46 32 81 32 C81 34.31 81 36.62 81 39 C54.27 39 27.54 39 0 39 C0 41.31 0 43.62 0 46 C29.37 46 58.74 46 89 46 C89 62.5 89 79 89 96 C86.36 96 83.72 96 81 96 C81 98.31 81 100.62 81 103 C77.7 103 74.4 103 71 103 C71 105.31 71 107.62 71 110 C47.57 110 24.14 110 0 110 C0 107.69 0 105.38 0 103 C8.25 103 16.5 103 25 103 C25 100.69 25 98.38 25 96 C22.36 96 19.72 96 17 96 C17 92.37 17 88.74 17 85 C13.7 85 10.4 85 7 85 C7 82.69 7 80.38 7 78 C4.69 78 2.38 78 0 78 C0 73.38 0 68.76 0 64 C-2.31 64 -4.62 64 -7 64 C-7 45.19 -7 26.38 -7 7 C-4.69 7 -2.38 7 0 7 C0 4.69 0 2.38 0 0 Z " fill="#2A0101" transform="translate(107,338)"/>
<path d="M0 0 C15.18 0 30.36 0 46 0 C46 4.62 46 9.24 46 14 C41.38 14 36.76 14 32 14 C32 19.94 32 25.88 32 32 C29.69 32 27.38 32 25 32 C25 38.93 25 45.86 25 53 C50.74 53 76.48 53 103 53 C103 56.63 103 60.26 103 64 C77.26 64 51.52 64 25 64 C25 76.87 25 89.74 25 103 C27.31 103 29.62 103 32 103 C32 105.31 32 107.62 32 110 C55.43 110 78.86 110 103 110 C103 112.31 103 114.62 103 117 C98.38 117 93.76 117 89 117 C89 120.63 89 124.26 89 128 C70.19 128 51.38 128 32 128 C32 124.37 32 120.74 32 117 C29.69 117 27.38 117 25 117 C25 114.69 25 112.38 25 110 C22.36 110 19.72 110 17 110 C17 107.69 17 105.38 17 103 C11.39 103 5.78 103 0 103 C0 97.06 0 91.12 0 85 C-2.31 85 -4.62 85 -7 85 C-7 61.57 -7 38.14 -7 14 C-4.69 14 -2.38 14 0 14 C0 9.38 0 4.76 0 0 Z " fill="#B80601" transform="translate(299,338)"/>
<path d="M0 0 C55.11 0 110.22 0 167 0 C167 10.56 167 21.12 167 32 C111.89 32 56.78 32 0 32 C0 21.44 0 10.88 0 0 Z " fill="#FF1D01" transform="translate(171,160)"/>
<path d="M0 0 C10.56 0 21.12 0 32 0 C32 3.63 32 7.26 32 11 C36.62 11 41.24 11 46 11 C46 13.31 46 15.62 46 18 C54.25 18 62.5 18 71 18 C71 22.62 71 27.24 71 32 C41.63 32 12.26 32 -18 32 C-18 35.63 -18 39.26 -18 43 C-20.31 43 -22.62 43 -25 43 C-25 45.31 -25 47.62 -25 50 C-27.31 50 -29.62 50 -32 50 C-32 68.81 -32 87.62 -32 107 C-29.69 107 -27.38 107 -25 107 C-25 111.62 -25 116.24 -25 121 C-22.69 121 -20.38 121 -18 121 C-18 123.31 -18 125.62 -18 128 C-14.7 128 -11.4 128 -8 128 C-8 131.63 -8 135.26 -8 139 C-5.36 139 -2.72 139 0 139 C0 141.31 0 143.62 0 146 C-13.2 146 -26.4 146 -40 146 C-40 140.06 -40 134.12 -40 128 C-43.3 128 -46.6 128 -50 128 C-50 117.44 -50 106.88 -50 96 C-52.31 96 -54.62 96 -57 96 C-57 83.13 -57 70.26 -57 57 C-54.69 57 -52.38 57 -50 57 C-50 48.75 -50 40.5 -50 32 C-46.7 32 -43.4 32 -40 32 C-40 29.69 -40 27.38 -40 25 C-37.36 25 -34.72 25 -32 25 C-32 22.69 -32 20.38 -32 18 C-24.08 18 -16.16 18 -8 18 C-8 15.69 -8 13.38 -8 11 C-5.36 11 -2.72 11 0 11 C0 7.37 0 3.74 0 0 Z " fill="#B80501" transform="translate(132,295)"/>
<path d="M0 0 C13.86 0 27.72 0 42 0 C42 2.31 42 4.62 42 7 C38.7 7 35.4 7 32 7 C32 15.25 32 23.5 32 32 C29.69 32 27.38 32 25 32 C25 50.81 25 69.62 25 89 C22.69 89 20.38 89 18 89 C18 106.49 18 123.98 18 142 C20.31 142 22.62 142 25 142 C25 145.63 25 149.26 25 153 C30.61 153 36.22 153 42 153 C42 155.31 42 157.62 42 160 C28.14 160 14.28 160 0 160 C0 151.75 0 143.5 0 135 C-2.31 135 -4.62 135 -7 135 C-7 116.19 -7 97.38 -7 78 C-4.69 78 -2.38 78 0 78 C0 52.26 0 26.52 0 0 Z " fill="#B80501" transform="translate(114,121)"/>
<path d="M0 0 C12.87 0 25.74 0 39 0 C39 12.87 39 25.74 39 39 C41.31 39 43.62 39 46 39 C46 76.62 46 114.24 46 153 C43.69 153 41.38 153 39 153 C39 155.31 39 157.62 39 160 C26.13 160 13.26 160 0 160 C0 157.69 0 155.38 0 153 C4.62 153 9.24 153 14 153 C14 149.37 14 145.74 14 142 C16.31 142 18.62 142 21 142 C21 110.32 21 78.64 21 46 C18.69 46 16.38 46 14 46 C14 35.44 14 24.88 14 14 C11.69 14 9.38 14 7 14 C7 11.69 7 9.38 7 7 C4.69 7 2.38 7 0 7 C0 4.69 0 2.38 0 0 Z " fill="#B80801" transform="translate(356,121)"/>
<path d="M0 0 C28.05 0 56.1 0 85 0 C85 10.56 85 21.12 85 32 C82.69 32 80.38 32 78 32 C78 34.31 78 36.62 78 39 C73.38 39 68.76 39 64 39 C64 44.94 64 50.88 64 57 C70.93 57 77.86 57 85 57 C85 59.31 85 61.62 85 64 C59.26 64 33.52 64 7 64 C7 61.69 7 59.38 7 57 C4.69 57 2.38 57 0 57 C0 44.13 0 31.26 0 18 C25.74 18 51.48 18 78 18 C78 14.37 78 10.74 78 7 C52.26 7 26.52 7 0 7 C0 4.69 0 2.38 0 0 Z " fill="#6D0101" transform="translate(324,384)"/>
<path d="M0 0 C57.42 0 114.84 0 174 0 C174 5.94 174 11.88 174 18 C116.58 18 59.16 18 0 18 C0 12.06 0 6.12 0 0 Z " fill="#FF3601" transform="translate(171,224)"/>
<path d="M0 0 C7.92 0 15.84 0 24 0 C24 10.56 24 21.12 24 32 C20.7 32 17.4 32 14 32 C14 37.94 14 43.88 14 50 C11.69 50 9.38 50 7 50 C7 52.31 7 54.62 7 57 C4.69 57 2.38 57 0 57 C0 59.31 0 61.62 0 64 C-5.94 64 -11.88 64 -18 64 C-18 67.63 -18 71.26 -18 75 C-35.82 75 -53.64 75 -72 75 C-72 71.37 -72 67.74 -72 64 C-77.61 64 -83.22 64 -89 64 C-89 61.69 -89 59.38 -89 57 C-65.57 57 -42.14 57 -18 57 C-18 54.69 -18 52.38 -18 50 C-14.7 50 -11.4 50 -8 50 C-8 47.69 -8 45.38 -8 43 C-5.36 43 -2.72 43 0 43 C0 28.81 0 14.62 0 0 Z " fill="#B80501" transform="translate(196,391)"/>
<path d="M0 0 C24.42 0 48.84 0 74 0 C74 4.62 74 9.24 74 14 C70.7 14 67.4 14 64 14 C64 22.25 64 30.5 64 39 C40.57 39 17.14 39 -7 39 C-7 36.69 -7 34.38 -7 32 C1.25 32 9.5 32 18 32 C18 29.69 18 27.38 18 25 C15.36 25 12.72 25 10 25 C10 21.37 10 17.74 10 14 C6.7 14 3.4 14 0 14 C0 9.38 0 4.76 0 0 Z " fill="#6D0101" transform="translate(114,409)"/>
<path d="M0 0 C18.48 0 36.96 0 56 0 C56 3.63 56 7.26 56 11 C58.64 11 61.28 11 64 11 C64 15.62 64 20.24 64 25 C61.36 25 58.72 25 56 25 C56 27.31 56 29.62 56 32 C52.7 32 49.4 32 46 32 C46 35.63 46 39.26 46 43 C33.13 43 20.26 43 7 43 C7 37.06 7 31.12 7 25 C4.69 25 2.38 25 0 25 C0 16.75 0 8.5 0 0 Z " fill="#B80701" transform="translate(36,263)"/>
<path d="M0 0 C10.56 0 21.12 0 32 0 C32 3.63 32 7.26 32 11 C35.63 11 39.26 11 43 11 C43 13.31 43 15.62 43 18 C53.56 18 64.12 18 75 18 C75 22.62 75 27.24 75 32 C37.38 32 -0.24 32 -39 32 C-39 29.69 -39 27.38 -39 25 C-35.7 25 -32.4 25 -29 25 C-29 22.69 -29 20.38 -29 18 C-24.05 18 -19.1 18 -14 18 C-14 15.69 -14 13.38 -14 11 C-9.38 11 -4.76 11 0 11 C0 7.37 0 3.74 0 0 Z " fill="#B80501" transform="translate(345,295)"/>
<path d="M0 0 C8.25 0 16.5 0 25 0 C25 14.19 25 28.38 25 43 C27.31 43 29.62 43 32 43 C32 47.62 32 52.24 32 57 C34.31 57 36.62 57 39 57 C39 59.31 39 61.62 39 64 C42.3 64 45.6 64 49 64 C49 67.63 49 71.26 49 75 C51.64 75 54.28 75 57 75 C57 77.31 57 79.62 57 82 C43.8 82 30.6 82 17 82 C17 76.06 17 70.12 17 64 C13.7 64 10.4 64 7 64 C7 53.44 7 42.88 7 32 C4.69 32 2.38 32 0 32 C0 21.44 0 10.88 0 0 Z " fill="#B80501" transform="translate(75,359)"/>
<path d="M0 0 C21.12 0 42.24 0 64 0 C64 10.56 64 21.12 64 32 C42.88 32 21.76 32 0 32 C0 21.44 0 10.88 0 0 Z " fill="#B60A01" transform="translate(28,192)"/>
<path d="M0 0 C92.73 0 185.46 0 281 0 C281 2.31 281 4.62 281 7 C188.27 7 95.54 7 0 7 C0 4.69 0 2.38 0 0 Z " fill="#790301" transform="translate(114,114)"/>
<path d="M0 0 C92.73 0 185.46 0 281 0 C281 2.31 281 4.62 281 7 C188.27 7 95.54 7 0 7 C0 4.69 0 2.38 0 0 Z " fill="#B80501" transform="translate(114,107)"/>
<path d="M0 0 C87.12 0 174.24 0 264 0 C264 2.31 264 4.62 264 7 C176.88 7 89.76 7 0 7 C0 4.69 0 2.38 0 0 Z " fill="#790101" transform="translate(124,82)"/>
<path d="M0 0 C3.63 0 7.26 0 11 0 C11 2.31 11 4.62 11 7 C23.87 7 36.74 7 50 7 C50 4.69 50 2.38 50 0 C52.31 0 54.62 0 57 0 C57 2.31 57 4.62 57 7 C59.31 7 61.62 7 64 7 C64 11.62 64 16.24 64 21 C40.57 21 17.14 21 -7 21 C-7 24.63 -7 28.26 -7 32 C16.43 32 39.86 32 64 32 C64 34.31 64 36.62 64 39 C35.95 39 7.9 39 -21 39 C-21 36.69 -21 34.38 -21 32 C-18.69 32 -16.38 32 -14 32 C-14 26.06 -14 20.12 -14 14 C-9.38 14 -4.76 14 0 14 C0 9.38 0 4.76 0 0 Z " fill="#310101" transform="translate(345,338)"/>
<path d="M0 0 C33.99 0 67.98 0 103 0 C103 2.31 103 4.62 103 7 C108.94 7 114.88 7 121 7 C121 9.31 121 11.62 121 14 C78.76 14 36.52 14 -7 14 C-7 11.69 -7 9.38 -7 7 C-4.69 7 -2.38 7 0 7 C0 4.69 0 2.38 0 0 Z " fill="#790401" transform="translate(203,466)"/>
<path d="M0 0 C21.12 0 42.24 0 64 0 C64 8.25 64 16.5 64 25 C42.88 25 21.76 25 0 25 C0 16.75 0 8.5 0 0 Z " fill="#7A0101" transform="translate(420,167)"/>
<path d="M0 0 C21.12 0 42.24 0 64 0 C64 8.25 64 16.5 64 25 C42.88 25 21.76 25 0 25 C0 16.75 0 8.5 0 0 Z " fill="#790201" transform="translate(28,167)"/>
<path d="M0 0 C5.94 0 11.88 0 18 0 C18 2.31 18 4.62 18 7 C20.31 7 22.62 7 25 7 C25 12.94 25 18.88 25 25 C27.31 25 29.62 25 32 25 C32 27.31 32 29.62 32 32 C10.88 32 -10.24 32 -32 32 C-32 23.75 -32 15.5 -32 7 C-21.44 7 -10.88 7 0 7 C0 4.69 0 2.38 0 0 Z " fill="#790201" transform="translate(441,89)"/>
<path d="M0 0 C8.25 0 16.5 0 25 0 C25 2.31 25 4.62 25 7 C33.25 7 41.5 7 50 7 C50 15.25 50 23.5 50 32 C31.19 32 12.38 32 -7 32 C-7 27.38 -7 22.76 -7 18 C-4.69 18 -2.38 18 0 18 C0 12.06 0 6.12 0 0 Z " fill="#790201" transform="translate(50,89)"/>
<path d="M0 0 C16.5 0 33 0 50 0 C50 2.31 50 4.62 50 7 C68.48 7 86.96 7 106 7 C106 4.69 106 2.38 106 0 C121.51 0 137.02 0 153 0 C153 2.31 153 4.62 153 7 C148.05 7 143.1 7 138 7 C138 9.31 138 11.62 138 14 C100.71 14 63.42 14 25 14 C25 11.69 25 9.38 25 7 C16.75 7 8.5 7 0 7 C0 4.69 0 2.38 0 0 Z " fill="#B80801" transform="translate(178,281)"/>
<path d="M0 0 C28.05 0 56.1 0 85 0 C85 10.56 85 21.12 85 32 C82.69 32 80.38 32 78 32 C78 34.31 78 36.62 78 39 C73.38 39 68.76 39 64 39 C64 36.69 64 34.38 64 32 C66.31 32 68.62 32 71 32 C71 29.69 71 27.38 71 25 C47.57 25 24.14 25 0 25 C0 22.69 0 20.38 0 18 C25.74 18 51.48 18 78 18 C78 14.37 78 10.74 78 7 C52.26 7 26.52 7 0 7 C0 4.69 0 2.38 0 0 Z " fill="#220101" transform="translate(324,384)"/>
<path d="M0 0 C13.86 0 27.72 0 42 0 C42 2.31 42 4.62 42 7 C38.7 7 35.4 7 32 7 C32 15.25 32 23.5 32 32 C29.69 32 27.38 32 25 32 C25 36.62 25 41.24 25 46 C16.75 46 8.5 46 0 46 C0 30.82 0 15.64 0 0 Z " fill="#B80801" transform="translate(114,121)"/>
<path d="M0 0 C10.56 0 21.12 0 32 0 C32 4.62 32 9.24 32 14 C35.3 14 38.6 14 42 14 C42 19.94 42 25.88 42 32 C25.83 32 9.66 32 -7 32 C-7 23.75 -7 15.5 -7 7 C-4.69 7 -2.38 7 0 7 C0 4.69 0 2.38 0 0 Z " fill="#B80901" transform="translate(242,409)"/>
<path d="M0 0 C10.56 0 21.12 0 32 0 C32 5.94 32 11.88 32 18 C29.69 18 27.38 18 25 18 C25 28.56 25 39.12 25 50 C16.75 50 8.5 50 0 50 C0 33.5 0 17 0 0 Z " fill="#9B0401" transform="translate(242,359)"/>
<path d="M0 0 C31.68 0 63.36 0 96 0 C96 3.63 96 7.26 96 11 C78.18 11 60.36 11 42 11 C42 13.31 42 15.62 42 18 C28.14 18 14.28 18 0 18 C0 12.06 0 6.12 0 0 Z " fill="#760401" transform="translate(114,327)"/>
<path d="M0 0 C31.68 0 63.36 0 96 0 C96 5.94 96 11.88 96 18 C83.13 18 70.26 18 57 18 C57 15.69 57 13.38 57 11 C38.19 11 19.38 11 0 11 C0 7.37 0 3.74 0 0 Z " fill="#770401" transform="translate(299,327)"/>
<path d="M0 0 C21.12 0 42.24 0 64 0 C64 5.94 64 11.88 64 18 C42.88 18 21.76 18 0 18 C0 12.06 0 6.12 0 0 Z " fill="#B80701" transform="translate(28,224)"/>
<path d="M0 0 C8.25 0 16.5 0 25 0 C25 2.31 25 4.62 25 7 C27.31 7 29.62 7 32 7 C32 9.31 32 11.62 32 14 C35.3 14 38.6 14 42 14 C42 17.63 42 21.26 42 25 C44.64 25 47.28 25 50 25 C50 27.31 50 29.62 50 32 C36.8 32 23.6 32 10 32 C10 26.06 10 20.12 10 14 C6.7 14 3.4 14 0 14 C0 9.38 0 4.76 0 0 Z " fill="#B80601" transform="translate(82,409)"/>
<path d="M0 0 C29.37 0 58.74 0 89 0 C89 3.63 89 7.26 89 11 C59.63 11 30.26 11 0 11 C0 7.37 0 3.74 0 0 Z " fill="#790101" transform="translate(210,295)"/>
<path d="M0 0 C15.18 0 30.36 0 46 0 C46 4.62 46 9.24 46 14 C41.38 14 36.76 14 32 14 C32 16.31 32 18.62 32 21 C19.13 21 6.26 21 -7 21 C-7 18.69 -7 16.38 -7 14 C-4.69 14 -2.38 14 0 14 C0 9.38 0 4.76 0 0 Z " fill="#780201" transform="translate(299,338)"/>
<path d="M0 0 C42.24 0 84.48 0 128 0 C128 2.31 128 4.62 128 7 C85.76 7 43.52 7 0 7 C0 4.69 0 2.38 0 0 Z " fill="#FF1D01" transform="translate(196,185)"/>
<path d="M0 0 C42.24 0 84.48 0 128 0 C128 2.31 128 4.62 128 7 C85.76 7 43.52 7 0 7 C0 4.69 0 2.38 0 0 Z " fill="#FF5201" transform="translate(196,178)"/>
<path d="M0 0 C42.24 0 84.48 0 128 0 C128 2.31 128 4.62 128 7 C85.76 7 43.52 7 0 7 C0 4.69 0 2.38 0 0 Z " fill="#FF5201" transform="translate(196,160)"/>
<path d="M0 0 C26.73 0 53.46 0 81 0 C81 3.63 81 7.26 81 11 C54.27 11 27.54 11 0 11 C0 7.37 0 3.74 0 0 Z " fill="#6D0101" transform="translate(107,391)"/>
<path d="M0 0 C5.94 0 11.88 0 18 0 C18 4.62 18 9.24 18 14 C15.69 14 13.38 14 11 14 C11 19.94 11 25.88 11 32 C0.44 32 -10.12 32 -21 32 C-21 26.06 -21 20.12 -21 14 C-16.38 14 -11.76 14 -7 14 C-7 11.69 -7 9.38 -7 7 C-4.69 7 -2.38 7 0 7 C0 4.69 0 2.38 0 0 Z " fill="#B70501" transform="translate(409,409)"/>
<path d="M0 0 C25.74 0 51.48 0 78 0 C78 3.63 78 7.26 78 11 C52.26 11 26.52 11 0 11 C0 7.37 0 3.74 0 0 Z " fill="#6E0101" transform="translate(324,391)"/>
<path d="M0 0 C10.56 0 21.12 0 32 0 C32 3.63 32 7.26 32 11 C29.69 11 27.38 11 25 11 C25 13.31 25 15.62 25 18 C22.69 18 20.38 18 18 18 C18 22.62 18 27.24 18 32 C9.75 32 1.5 32 -7 32 C-7 29.69 -7 27.38 -7 25 C-4.69 25 -2.38 25 0 25 C0 16.75 0 8.5 0 0 Z " fill="#790401" transform="translate(82,327)"/>
<path d="M0 0 C8.25 0 16.5 0 25 0 C25 10.56 25 21.12 25 32 C16.75 32 8.5 32 0 32 C0 21.44 0 10.88 0 0 Z " fill="#B80A01" transform="translate(377,192)"/>
<path d="M0 0 C8.25 0 16.5 0 25 0 C25 10.56 25 21.12 25 32 C16.75 32 8.5 32 0 32 C0 21.44 0 10.88 0 0 Z " fill="#FF3601" transform="translate(171,160)"/>
<path d="M0 0 C37.62 0 75.24 0 114 0 C114 2.31 114 4.62 114 7 C76.38 7 38.76 7 0 7 C0 4.69 0 2.38 0 0 Z " fill="#B50501" transform="translate(306,320)"/>
<path d="M0 0 C23.43 0 46.86 0 71 0 C71 3.63 71 7.26 71 11 C47.57 11 24.14 11 0 11 C0 7.37 0 3.74 0 0 Z " fill="#6F0101" transform="translate(338,359)"/>
<path d="M0 0 C23.43 0 46.86 0 71 0 C71 3.63 71 7.26 71 11 C47.57 11 24.14 11 0 11 C0 7.37 0 3.74 0 0 Z " fill="#6E0101" transform="translate(107,359)"/>
<path d="M0 0 C36.63 0 73.26 0 111 0 C111 2.31 111 4.62 111 7 C74.37 7 37.74 7 0 7 C0 4.69 0 2.38 0 0 Z " fill="#B20501" transform="translate(92,320)"/>
<path d="M0 0 C34.32 0 68.64 0 104 0 C104 2.31 104 4.62 104 7 C69.68 7 35.36 7 0 7 C0 4.69 0 2.38 0 0 Z " fill="#790301" transform="translate(316,313)"/>
<path d="M0 0 C33.99 0 67.98 0 103 0 C103 2.31 103 4.62 103 7 C69.01 7 35.02 7 0 7 C0 4.69 0 2.38 0 0 Z " fill="#B80501" transform="translate(203,466)"/>
<path d="M0 0 C33.99 0 67.98 0 103 0 C103 2.31 103 4.62 103 7 C69.01 7 35.02 7 0 7 C0 4.69 0 2.38 0 0 Z " fill="#790401" transform="translate(100,313)"/>
<path d="M0 0 C18.81 0 37.62 0 57 0 C57 3.63 57 7.26 57 11 C38.19 11 19.38 11 0 11 C0 7.37 0 3.74 0 0 Z " fill="#790401" transform="translate(331,455)"/>
<path d="M0 0 C10.56 0 21.12 0 32 0 C32 3.63 32 7.26 32 11 C29.69 11 27.38 11 25 11 C25 13.31 25 15.62 25 18 C12.13 18 -0.74 18 -14 18 C-14 15.69 -14 13.38 -14 11 C-9.38 11 -4.76 11 0 11 C0 7.37 0 3.74 0 0 Z " fill="#B80501" transform="translate(370,263)"/>
<path d="M0 0 C8.25 0 16.5 0 25 0 C25 8.25 25 16.5 25 25 C16.75 25 8.5 25 0 25 C0 16.75 0 8.5 0 0 Z " fill="#790401" transform="translate(377,167)"/>
<path d="M0 0 C8.25 0 16.5 0 25 0 C25 8.25 25 16.5 25 25 C16.75 25 8.5 25 0 25 C0 16.75 0 8.5 0 0 Z " fill="#790401" transform="translate(114,167)"/>
<path d="M0 0 C28.05 0 56.1 0 85 0 C85 2.31 85 4.62 85 7 C56.95 7 28.9 7 0 7 C0 4.69 0 2.38 0 0 Z " fill="#6F0101" transform="translate(324,377)"/>
<path d="M0 0 C17.82 0 35.64 0 54 0 C54 3.63 54 7.26 54 11 C36.18 11 18.36 11 0 11 C0 7.37 0 3.74 0 0 Z " fill="#790401" transform="translate(124,455)"/>
<path d="M0 0 C2.64 0 5.28 0 8 0 C8 16.5 8 33 8 50 C5.36 50 2.72 50 0 50 C0 52.31 0 54.62 0 57 C-3.3 57 -6.6 57 -10 57 C-10 51.06 -10 45.12 -10 39 C-6.7 39 -3.4 39 0 39 C0 26.13 0 13.26 0 0 Z " fill="#010101" transform="translate(188,384)"/>
<path d="M0 0 C8.25 0 16.5 0 25 0 C25 3.63 25 7.26 25 11 C30.61 11 36.22 11 42 11 C42 13.31 42 15.62 42 18 C28.14 18 14.28 18 0 18 C0 12.06 0 6.12 0 0 Z " fill="#B80701" transform="translate(114,263)"/>
<path d="M0 0 C26.73 0 53.46 0 81 0 C81 2.31 81 4.62 81 7 C54.27 7 27.54 7 0 7 C0 4.69 0 2.38 0 0 Z " fill="#220101" transform="translate(107,384)"/>
<path d="M0 0 C26.73 0 53.46 0 81 0 C81 2.31 81 4.62 81 7 C54.27 7 27.54 7 0 7 C0 4.69 0 2.38 0 0 Z " fill="#6F0101" transform="translate(107,377)"/>
<path d="M0 0 C23.76 0 47.52 0 72 0 C72 2.31 72 4.62 72 7 C48.24 7 24.48 7 0 7 C0 4.69 0 2.38 0 0 Z " fill="#B80901" transform="translate(220,306)"/>
<path d="M0 0 C12.87 0 25.74 0 39 0 C39 4.62 39 9.24 39 14 C28.44 14 17.88 14 7 14 C7 11.69 7 9.38 7 7 C4.69 7 2.38 7 0 7 C0 4.69 0 2.38 0 0 Z " fill="#790401" transform="translate(235,345)"/>
<path d="M0 0 C2.31 0 4.62 0 7 0 C7 4.62 7 9.24 7 14 C4.69 14 2.38 14 0 14 C0 30.5 0 47 0 64 C-2.31 64 -4.62 64 -7 64 C-7 45.19 -7 26.38 -7 7 C-4.69 7 -2.38 7 0 7 C0 4.69 0 2.38 0 0 Z " fill="#010101" transform="translate(107,338)"/>
<path d="M0 0 C8.25 0 16.5 0 25 0 C25 6.93 25 13.86 25 21 C19.06 21 13.12 21 7 21 C7 18.69 7 16.38 7 14 C4.69 14 2.38 14 0 14 C0 9.38 0 4.76 0 0 Z " fill="#B80501" transform="translate(107,242)"/>
<path d="M0 0 C21.12 0 42.24 0 64 0 C64 2.31 64 4.62 64 7 C42.88 7 21.76 7 0 7 C0 4.69 0 2.38 0 0 Z " fill="#7A0101" transform="translate(228,313)"/>
<path d="M0 0 C21.12 0 42.24 0 64 0 C64 2.31 64 4.62 64 7 C42.88 7 21.76 7 0 7 C0 4.69 0 2.38 0 0 Z " fill="#790201" transform="translate(420,256)"/>
<path d="M0 0 C21.12 0 42.24 0 64 0 C64 2.31 64 4.62 64 7 C42.88 7 21.76 7 0 7 C0 4.69 0 2.38 0 0 Z " fill="#B80A01" transform="translate(420,249)"/>
<path d="M0 0 C21.12 0 42.24 0 64 0 C64 2.31 64 4.62 64 7 C42.88 7 21.76 7 0 7 C0 4.69 0 2.38 0 0 Z " fill="#7A0101" transform="translate(420,242)"/>
<path d="M0 0 C21.12 0 42.24 0 64 0 C64 2.31 64 4.62 64 7 C42.88 7 21.76 7 0 7 C0 4.69 0 2.38 0 0 Z " fill="#790201" transform="translate(28,242)"/>
<path d="M0 0 C21.12 0 42.24 0 64 0 C64 2.31 64 4.62 64 7 C42.88 7 21.76 7 0 7 C0 4.69 0 2.38 0 0 Z " fill="#7A0101" transform="translate(420,224)"/>
<path d="M0 0 C21.12 0 42.24 0 64 0 C64 2.31 64 4.62 64 7 C42.88 7 21.76 7 0 7 C0 4.69 0 2.38 0 0 Z " fill="#790201" transform="translate(28,224)"/>
<path d="M0 0 C21.12 0 42.24 0 64 0 C64 2.31 64 4.62 64 7 C42.88 7 21.76 7 0 7 C0 4.69 0 2.38 0 0 Z " fill="#7A0101" transform="translate(420,185)"/>
<path d="M0 0 C21.12 0 42.24 0 64 0 C64 2.31 64 4.62 64 7 C42.88 7 21.76 7 0 7 C0 4.69 0 2.38 0 0 Z " fill="#790201" transform="translate(28,185)"/>
<path d="M0 0 C21.12 0 42.24 0 64 0 C64 2.31 64 4.62 64 7 C42.88 7 21.76 7 0 7 C0 4.69 0 2.38 0 0 Z " fill="#B80A01" transform="translate(420,178)"/>
<path d="M0 0 C21.12 0 42.24 0 64 0 C64 2.31 64 4.62 64 7 C42.88 7 21.76 7 0 7 C0 4.69 0 2.38 0 0 Z " fill="#B80701" transform="translate(28,178)"/>
<path d="M0 0 C4.62 0 9.24 0 14 0 C14 10.56 14 21.12 14 32 C9.38 32 4.76 32 0 32 C0 21.44 0 10.88 0 0 Z " fill="#FF3601" transform="translate(324,160)"/>
<path d="M0 0 C21.12 0 42.24 0 64 0 C64 2.31 64 4.62 64 7 C42.88 7 21.76 7 0 7 C0 4.69 0 2.38 0 0 Z " fill="#790201" transform="translate(409,114)"/>
<path d="M0 0 C12.87 0 25.74 0 39 0 C39 3.63 39 7.26 39 11 C26.13 11 13.26 11 0 11 C0 7.37 0 3.74 0 0 Z " fill="#790401" transform="translate(427,295)"/>
<path d="M0 0 C12.87 0 25.74 0 39 0 C39 3.63 39 7.26 39 11 C26.13 11 13.26 11 0 11 C0 7.37 0 3.74 0 0 Z " fill="#790401" transform="translate(43,295)"/>
<path d="M0 0 C18.81 0 37.62 0 57 0 C57 2.31 57 4.62 57 7 C38.19 7 19.38 7 0 7 C0 4.69 0 2.38 0 0 Z " fill="#790201" transform="translate(43,114)"/>
<path d="M0 0 C18.81 0 37.62 0 57 0 C57 2.31 57 4.62 57 7 C38.19 7 19.38 7 0 7 C0 4.69 0 2.38 0 0 Z " fill="#B80701" transform="translate(409,107)"/>
<path d="M0 0 C18.81 0 37.62 0 57 0 C57 2.31 57 4.62 57 7 C38.19 7 19.38 7 0 7 C0 4.69 0 2.38 0 0 Z " fill="#B80701" transform="translate(43,107)"/>
<path d="M0 0 C18.48 0 36.96 0 56 0 C56 2.31 56 4.62 56 7 C37.52 7 19.04 7 0 7 C0 4.69 0 2.38 0 0 Z " fill="#790201" transform="translate(36,256)"/>
<path d="M0 0 C2.31 0 4.62 0 7 0 C7 10.56 7 21.12 7 32 C4.69 32 2.38 32 0 32 C0 34.31 0 36.62 0 39 C-4.62 39 -9.24 39 -14 39 C-14 36.69 -14 34.38 -14 32 C-11.69 32 -9.38 32 -7 32 C-7 29.69 -7 27.38 -7 25 C-4.69 25 -2.38 25 0 25 C0 16.75 0 8.5 0 0 Z " fill="#010101" transform="translate(402,384)"/>
<path d="M0 0 C10.56 0 21.12 0 32 0 C32 3.63 32 7.26 32 11 C21.44 11 10.88 11 0 11 C0 7.37 0 3.74 0 0 Z " fill="#B80A01" transform="translate(292,391)"/>
<path d="M0 0 C10.56 0 21.12 0 32 0 C32 3.63 32 7.26 32 11 C21.44 11 10.88 11 0 11 C0 7.37 0 3.74 0 0 Z " fill="#B80501" transform="translate(242,359)"/>
<path d="M0 0 C10.56 0 21.12 0 32 0 C32 3.63 32 7.26 32 11 C21.44 11 10.88 11 0 11 C0 7.37 0 3.74 0 0 Z " fill="#010101" transform="translate(114,327)"/>
<path d="M0 0 C10.56 0 21.12 0 32 0 C32 3.63 32 7.26 32 11 C21.44 11 10.88 11 0 11 C0 7.37 0 3.74 0 0 Z " fill="#760401" transform="translate(82,327)"/>
<path d="M0 0 C10.56 0 21.12 0 32 0 C32 3.63 32 7.26 32 11 C21.44 11 10.88 11 0 11 C0 7.37 0 3.74 0 0 Z " fill="#790401" transform="translate(345,295)"/>
<path d="M0 0 C10.56 0 21.12 0 32 0 C32 3.63 32 7.26 32 11 C21.44 11 10.88 11 0 11 C0 7.37 0 3.74 0 0 Z " fill="#790401" transform="translate(132,295)"/>
<path d="M0 0 C8.25 0 16.5 0 25 0 C25 4.62 25 9.24 25 14 C16.75 14 8.5 14 0 14 C0 9.38 0 4.76 0 0 Z " fill="#770401" transform="translate(409,345)"/>
<path d="M0 0 C15.18 0 30.36 0 46 0 C46 2.31 46 4.62 46 7 C30.82 7 15.64 7 0 7 C0 4.69 0 2.38 0 0 Z " fill="#B80501" transform="translate(299,338)"/>
<path d="M0 0 C15.18 0 30.36 0 46 0 C46 2.31 46 4.62 46 7 C30.82 7 15.64 7 0 7 C0 4.69 0 2.38 0 0 Z " fill="#B80501" transform="translate(164,338)"/>
<path d="M0 0 C8.25 0 16.5 0 25 0 C25 3.63 25 7.26 25 11 C16.75 11 8.5 11 0 11 C0 7.37 0 3.74 0 0 Z " fill="#010101" transform="translate(370,327)"/>
<path d="M0 0 C12.87 0 25.74 0 39 0 C39 2.31 39 4.62 39 7 C26.13 7 13.26 7 0 7 C0 4.69 0 2.38 0 0 Z " fill="#730201" transform="translate(370,441)"/>
<path d="M0 0 C12.87 0 25.74 0 39 0 C39 2.31 39 4.62 39 7 C26.13 7 13.26 7 0 7 C0 4.69 0 2.38 0 0 Z " fill="#010101" transform="translate(331,441)"/>
<path d="M0 0 C12.87 0 25.74 0 39 0 C39 2.31 39 4.62 39 7 C26.13 7 13.26 7 0 7 C0 4.69 0 2.38 0 0 Z " fill="#B80501" transform="translate(235,338)"/>
<path d="M0 0 C7.92 0 15.84 0 24 0 C24 3.63 24 7.26 24 11 C16.08 11 8.16 11 0 11 C0 7.37 0 3.74 0 0 Z " fill="#B80501" transform="translate(196,391)"/>
<path d="M0 0 C3.63 0 7.26 0 11 0 C11 5.94 11 11.88 11 18 C5.06 18 -0.88 18 -7 18 C-7 15.69 -7 13.38 -7 11 C-4.69 11 -2.38 11 0 11 C0 7.37 0 3.74 0 0 Z " fill="#010101" transform="translate(377,423)"/>
<path d="M0 0 C10.56 0 21.12 0 32 0 C32 2.31 32 4.62 32 7 C21.44 7 10.88 7 0 7 C0 4.69 0 2.38 0 0 Z " fill="#010101" transform="translate(146,441)"/>
<path d="M0 0 C10.56 0 21.12 0 32 0 C32 2.31 32 4.62 32 7 C21.44 7 10.88 7 0 7 C0 4.69 0 2.38 0 0 Z " fill="#7A0101" transform="translate(292,402)"/>
<path d="M0 0 C10.56 0 21.12 0 32 0 C32 2.31 32 4.62 32 7 C21.44 7 10.88 7 0 7 C0 4.69 0 2.38 0 0 Z " fill="#7A0101" transform="translate(292,384)"/>
<path d="M0 0 C10.56 0 21.12 0 32 0 C32 2.31 32 4.62 32 7 C21.44 7 10.88 7 0 7 C0 4.69 0 2.38 0 0 Z " fill="#790401" transform="translate(196,384)"/>
<path d="M0 0 C10.56 0 21.12 0 32 0 C32 2.31 32 4.62 32 7 C21.44 7 10.88 7 0 7 C0 4.69 0 2.38 0 0 Z " fill="#B80A01" transform="translate(292,377)"/>
<path d="M0 0 C10.56 0 21.12 0 32 0 C32 2.31 32 4.62 32 7 C21.44 7 10.88 7 0 7 C0 4.69 0 2.38 0 0 Z " fill="#B50501" transform="translate(188,377)"/>
<path d="M0 0 C10.56 0 21.12 0 32 0 C32 2.31 32 4.62 32 7 C21.44 7 10.88 7 0 7 C0 4.69 0 2.38 0 0 Z " fill="#7A0101" transform="translate(292,370)"/>
<path d="M0 0 C10.56 0 21.12 0 32 0 C32 2.31 32 4.62 32 7 C21.44 7 10.88 7 0 7 C0 4.69 0 2.38 0 0 Z " fill="#770401" transform="translate(188,370)"/>
<path d="M0 0 C10.56 0 21.12 0 32 0 C32 2.31 32 4.62 32 7 C21.44 7 10.88 7 0 7 C0 4.69 0 2.38 0 0 Z " fill="#B80501" transform="translate(402,338)"/>
<path d="M0 0 C8.25 0 16.5 0 25 0 C25 2.31 25 4.62 25 7 C16.75 7 8.5 7 0 7 C0 4.69 0 2.38 0 0 Z " fill="#710101" transform="translate(178,441)"/>
<path d="M0 0 C8.25 0 16.5 0 25 0 C25 2.31 25 4.62 25 7 C16.75 7 8.5 7 0 7 C0 4.69 0 2.38 0 0 Z " fill="#790401" transform="translate(107,441)"/>
<path d="M0 0 C8.25 0 16.5 0 25 0 C25 2.31 25 4.62 25 7 C16.75 7 8.5 7 0 7 C0 4.69 0 2.38 0 0 Z " fill="#790401" transform="translate(242,402)"/>
<path d="M0 0 C8.25 0 16.5 0 25 0 C25 2.31 25 4.62 25 7 C16.75 7 8.5 7 0 7 C0 4.69 0 2.38 0 0 Z " fill="#760301" transform="translate(82,402)"/>
<path d="M0 0 C8.25 0 16.5 0 25 0 C25 2.31 25 4.62 25 7 C16.75 7 8.5 7 0 7 C0 4.69 0 2.38 0 0 Z " fill="#760401" transform="translate(409,384)"/>
<path d="M0 0 C8.25 0 16.5 0 25 0 C25 2.31 25 4.62 25 7 C16.75 7 8.5 7 0 7 C0 4.69 0 2.38 0 0 Z " fill="#790401" transform="translate(242,384)"/>
<path d="M0 0 C8.25 0 16.5 0 25 0 C25 2.31 25 4.62 25 7 C16.75 7 8.5 7 0 7 C0 4.69 0 2.38 0 0 Z " fill="#380101" transform="translate(107,384)"/>
<path d="M0 0 C8.25 0 16.5 0 25 0 C25 2.31 25 4.62 25 7 C16.75 7 8.5 7 0 7 C0 4.69 0 2.38 0 0 Z " fill="#790401" transform="translate(75,384)"/>
<path d="M0 0 C8.25 0 16.5 0 25 0 C25 2.31 25 4.62 25 7 C16.75 7 8.5 7 0 7 C0 4.69 0 2.38 0 0 Z " fill="#B30501" transform="translate(409,377)"/>
<path d="M0 0 C8.25 0 16.5 0 25 0 C25 2.31 25 4.62 25 7 C16.75 7 8.5 7 0 7 C0 4.69 0 2.38 0 0 Z " fill="#B80501" transform="translate(242,377)"/>
<path d="M0 0 C8.25 0 16.5 0 25 0 C25 2.31 25 4.62 25 7 C16.75 7 8.5 7 0 7 C0 4.69 0 2.38 0 0 Z " fill="#B80501" transform="translate(75,377)"/>
<path d="M0 0 C8.25 0 16.5 0 25 0 C25 2.31 25 4.62 25 7 C16.75 7 8.5 7 0 7 C0 4.69 0 2.38 0 0 Z " fill="#760401" transform="translate(409,370)"/>
<path d="M0 0 C8.25 0 16.5 0 25 0 C25 2.31 25 4.62 25 7 C16.75 7 8.5 7 0 7 C0 4.69 0 2.38 0 0 Z " fill="#790401" transform="translate(75,370)"/>
<path d="M0 0 C8.25 0 16.5 0 25 0 C25 2.31 25 4.62 25 7 C16.75 7 8.5 7 0 7 C0 4.69 0 2.38 0 0 Z " fill="#B50501" transform="translate(82,338)"/>
<path d="M0 0 C8.25 0 16.5 0 25 0 C25 2.31 25 4.62 25 7 C16.75 7 8.5 7 0 7 C0 4.69 0 2.38 0 0 Z " fill="#790401" transform="translate(377,256)"/>
<path d="M0 0 C8.25 0 16.5 0 25 0 C25 2.31 25 4.62 25 7 C16.75 7 8.5 7 0 7 C0 4.69 0 2.38 0 0 Z " fill="#B80501" transform="translate(377,249)"/>
<path d="M0 0 C8.25 0 16.5 0 25 0 C25 2.31 25 4.62 25 7 C16.75 7 8.5 7 0 7 C0 4.69 0 2.38 0 0 Z " fill="#790401" transform="translate(377,242)"/>
<path d="M0 0 C8.25 0 16.5 0 25 0 C25 2.31 25 4.62 25 7 C16.75 7 8.5 7 0 7 C0 4.69 0 2.38 0 0 Z " fill="#790401" transform="translate(107,242)"/>
<path d="M0 0 C8.25 0 16.5 0 25 0 C25 2.31 25 4.62 25 7 C16.75 7 8.5 7 0 7 C0 4.69 0 2.38 0 0 Z " fill="#790401" transform="translate(377,224)"/>
<path d="M0 0 C8.25 0 16.5 0 25 0 C25 2.31 25 4.62 25 7 C16.75 7 8.5 7 0 7 C0 4.69 0 2.38 0 0 Z " fill="#790401" transform="translate(107,224)"/>
<path d="M0 0 C8.25 0 16.5 0 25 0 C25 2.31 25 4.62 25 7 C16.75 7 8.5 7 0 7 C0 4.69 0 2.38 0 0 Z " fill="#790401" transform="translate(377,185)"/>
<path d="M0 0 C8.25 0 16.5 0 25 0 C25 2.31 25 4.62 25 7 C16.75 7 8.5 7 0 7 C0 4.69 0 2.38 0 0 Z " fill="#790401" transform="translate(114,185)"/>
<path d="M0 0 C8.25 0 16.5 0 25 0 C25 2.31 25 4.62 25 7 C16.75 7 8.5 7 0 7 C0 4.69 0 2.38 0 0 Z " fill="#B80501" transform="translate(377,178)"/>
<path d="M0 0 C8.25 0 16.5 0 25 0 C25 2.31 25 4.62 25 7 C16.75 7 8.5 7 0 7 C0 4.69 0 2.38 0 0 Z " fill="#B80501" transform="translate(114,178)"/>
<path d="M0 0 C8.25 0 16.5 0 25 0 C25 2.31 25 4.62 25 7 C16.75 7 8.5 7 0 7 C0 4.69 0 2.38 0 0 Z " fill="#B80A01" transform="translate(50,89)"/>
<path d="M0 0 C7.92 0 15.84 0 24 0 C24 2.31 24 4.62 24 7 C16.08 7 8.16 7 0 7 C0 4.69 0 2.38 0 0 Z " fill="#790401" transform="translate(196,402)"/>
<path d="M0 0 C6.93 0 13.86 0 21 0 C21 2.31 21 4.62 21 7 C14.07 7 7.14 7 0 7 C0 4.69 0 2.38 0 0 Z " fill="#3A0101" transform="translate(388,370)"/>
<path d="M0 0 C2.31 0 4.62 0 7 0 C7 5.94 7 11.88 7 18 C4.69 18 2.38 18 0 18 C0 12.06 0 6.12 0 0 Z " fill="#010101" transform="translate(324,423)"/>
<path d="M0 0 C5.94 0 11.88 0 18 0 C18 2.31 18 4.62 18 7 C12.06 7 6.12 7 0 7 C0 4.69 0 2.38 0 0 Z " fill="#750401" transform="translate(409,402)"/>
<path d="M0 0 C2.31 0 4.62 0 7 0 C7 5.94 7 11.88 7 18 C4.69 18 2.38 18 0 18 C0 12.06 0 6.12 0 0 Z " fill="#010101" transform="translate(331,352)"/>
<path d="M0 0 C5.94 0 11.88 0 18 0 C18 2.31 18 4.62 18 7 C12.06 7 6.12 7 0 7 C0 4.69 0 2.38 0 0 Z " fill="#790401" transform="translate(114,256)"/>
<path d="M0 0 C5.94 0 11.88 0 18 0 C18 2.31 18 4.62 18 7 C12.06 7 6.12 7 0 7 C0 4.69 0 2.38 0 0 Z " fill="#B80A01" transform="translate(441,89)"/>
<path d="M0 0 C4.95 0 9.9 0 15 0 C15 2.31 15 4.62 15 7 C10.05 7 5.1 7 0 7 C0 4.69 0 2.38 0 0 Z " fill="#730201" transform="translate(316,441)"/>
<path d="M0 0 C4.62 0 9.24 0 14 0 C14 2.31 14 4.62 14 7 C9.38 7 4.76 7 0 7 C0 4.69 0 2.38 0 0 Z " fill="#010101" transform="translate(132,434)"/>
<path d="M0 0 C4.62 0 9.24 0 14 0 C14 2.31 14 4.62 14 7 C9.38 7 4.76 7 0 7 C0 4.69 0 2.38 0 0 Z " fill="#3A0101" transform="translate(388,402)"/>
<path d="M0 0 C2.31 0 4.62 0 7 0 C7 4.62 7 9.24 7 14 C4.69 14 2.38 14 0 14 C0 9.38 0 4.76 0 0 Z " fill="#010101" transform="translate(107,402)"/>
<path d="M0 0 C4.62 0 9.24 0 14 0 C14 2.31 14 4.62 14 7 C9.38 7 4.76 7 0 7 C0 4.69 0 2.38 0 0 Z " fill="#3A0101" transform="translate(388,384)"/>
<path d="M0 0 C2.31 0 4.62 0 7 0 C7 4.62 7 9.24 7 14 C4.69 14 2.38 14 0 14 C0 9.38 0 4.76 0 0 Z " fill="#010101" transform="translate(402,345)"/>
<path d="M0 0 C2.64 0 5.28 0 8 0 C8 3.63 8 7.26 8 11 C5.36 11 2.72 11 0 11 C0 7.37 0 3.74 0 0 Z " fill="#010101" transform="translate(124,423)"/>
<path d="M0 0 C2.31 0 4.62 0 7 0 C7 3.63 7 7.26 7 11 C4.69 11 2.38 11 0 11 C0 7.37 0 3.74 0 0 Z " fill="#A40101" transform="translate(324,359)"/>
<path d="M0 0 C3.63 0 7.26 0 11 0 C11 2.31 11 4.62 11 7 C7.37 7 3.74 7 0 7 C0 4.69 0 2.38 0 0 Z " fill="#010101" transform="translate(345,338)"/>
<path d="M0 0 C3.3 0 6.6 0 10 0 C10 2.31 10 4.62 10 7 C6.7 7 3.4 7 0 7 C0 4.69 0 2.38 0 0 Z " fill="#010101" transform="translate(114,416)"/>
<path d="M0 0 C3.3 0 6.6 0 10 0 C10 2.31 10 4.62 10 7 C6.7 7 3.4 7 0 7 C0 4.69 0 2.38 0 0 Z " fill="#010101" transform="translate(178,370)"/>
<path d="M0 0 C2.64 0 5.28 0 8 0 C8 2.31 8 4.62 8 7 C5.36 7 2.72 7 0 7 C0 4.69 0 2.38 0 0 Z " fill="#A40101" transform="translate(188,434)"/>
<path d="M0 0 C2.64 0 5.28 0 8 0 C8 2.31 8 4.62 8 7 C5.36 7 2.72 7 0 7 C0 4.69 0 2.38 0 0 Z " fill="#010101" transform="translate(156,338)"/>
<path d="M0 0 C2.31 0 4.62 0 7 0 C7 2.31 7 4.62 7 7 C4.69 7 2.38 7 0 7 C0 4.69 0 2.38 0 0 Z " fill="#A40101" transform="translate(100,409)"/>
<path d="M0 0 C2.31 0 4.62 0 7 0 C7 2.31 7 4.62 7 7 C4.69 7 2.38 7 0 7 C0 4.69 0 2.38 0 0 Z " fill="#010101" transform="translate(324,370)"/>
<path d="M0 0 C2.31 0 4.62 0 7 0 C7 2.31 7 4.62 7 7 C4.69 7 2.38 7 0 7 C0 4.69 0 2.38 0 0 Z " fill="#010101" transform="translate(171,352)"/>
<path d="M0 0 C2.31 0 4.62 0 7 0 C7 2.31 7 4.62 7 7 C4.69 7 2.38 7 0 7 C0 4.69 0 2.38 0 0 Z " fill="#090101" transform="translate(164,345)"/>
<path d="M0 0 C2.31 0 4.62 0 7 0 C7 2.31 7 4.62 7 7 C4.69 7 2.38 7 0 7 C0 4.69 0 2.38 0 0 Z " fill="#010101" transform="translate(395,338)"/>
</svg>
