<?xml version="1.0" encoding="UTF-8"?>
<svg version="1.1" xmlns="http://www.w3.org/2000/svg" width="225" height="225">
<path d="M0 0 C74.25 0 148.5 0 225 0 C225 74.25 225 148.5 225 225 C150.75 225 76.5 225 0 225 C0 150.75 0 76.5 0 0 Z " fill="#F7F7F7" transform="translate(0,0)"/>
<path d="M0 0 C28.05 0 56.1 0 85 0 C85 1.65 85 3.3 85 5 C88.96 5 92.92 5 97 5 C97 6.32 97 7.64 97 9 C97.99 9 98.98 9 100 9 C100 10.98 100 12.96 100 15 C101.65 15 103.3 15 105 15 C105 19.95 105 24.9 105 30 C106.32 30 107.64 30 109 30 C109 40.23 109 50.46 109 61 C109.99 61 110.98 61 112 61 C112 78.49 112 95.98 112 114 C111.01 114 110.02 114 109 114 C109 114.99 109 115.98 109 117 C103.06 117 97.12 117 91 117 C91 116.01 91 115.02 91 114 C92.98 114 94.96 114 97 114 C97 112.35 97 110.7 97 109 C98.32 109 99.64 109 101 109 C101 94.15 101 79.3 101 64 C99.68 64 98.36 64 97 64 C97 58.72 97 53.44 97 48 C96.01 48 95.02 48 94 48 C94 47.01 94 46.02 94 45 C93.01 45 92.02 45 91 45 C91 44.01 91 43.02 91 42 C59.65 42 28.3 42 -4 42 C-4 42.99 -4 43.98 -4 45 C-5.32 45 -6.64 45 -8 45 C-8 48.96 -8 52.92 -8 57 C-9.32 57 -10.64 57 -12 57 C-12 65.58 -12 74.16 -12 83 C-13.32 83 -14.64 83 -16 83 C-16 91.58 -16 100.16 -16 109 C-14.68 109 -13.36 109 -12 109 C-12 110.65 -12 112.3 -12 114 C-9.36 114 -6.72 114 -4 114 C-4 114.99 -4 115.98 -4 117 C-10.6 117 -17.2 117 -24 117 C-24 113.37 -24 109.74 -24 106 C-24.99 106 -25.98 106 -27 106 C-27 97.09 -27 88.18 -27 79 C-26.01 79 -25.02 79 -24 79 C-24 62.83 -24 46.66 -24 30 C-22.02 30 -20.04 30 -18 30 C-18 26.7 -18 23.4 -18 20 C-17.01 20 -16.02 20 -15 20 C-15 17.36 -15 14.72 -15 12 C-14.01 12 -13.02 12 -12 12 C-12 11.01 -12 10.02 -12 9 C-10.68 9 -9.36 9 -8 9 C-8 7.68 -8 6.36 -8 5 C-5.36 5 -2.72 5 0 5 C0 3.35 0 1.7 0 0 Z " fill="#020202" transform="translate(69,7)"/>
<path d="M0 0 C0.33 0.66 0.66 1.32 1 2 C1.66 2 2.32 2 3 2 C3 6.29 3 10.58 3 15 C3.66 15 4.32 15 5 15 C6 17 6 17 6 24 C12.93 24.33 19.86 24.66 27 25 C27 25.66 27 26.32 27 27 C26.34 27 25.68 27 25 27 C25 30.3 25 33.6 25 37 C24.01 37.495 24.01 37.495 23 38 C23 47.24 23 56.48 23 66 C23.66 66 24.32 66 25 66 C25 70.29 25 74.58 25 79 C25.66 79 26.32 79 27 79 C27 79.66 27 80.32 27 81 C27.99 81 28.98 81 30 81 C30 82.98 30 84.96 30 87 C30.66 87 31.32 87 32 87 C32 87.66 32 88.32 32 89 C33.65 89 35.3 89 37 89 C37 90.65 37 92.3 37 94 C39.64 94.33 42.28 94.66 45 95 C45 96.32 45 97.64 45 99 C45.66 99 46.32 99 47 99 C47 99.66 47 100.32 47 101 C57.56 101 68.12 101 79 101 C79.33 102.65 79.66 104.3 80 106 C103.1 106 126.2 106 150 106 C150 104.35 150 102.7 150 101 C159.24 101 168.48 101 178 101 C178 100.34 178 99.68 178 99 C178.66 99 179.32 99 180 99 C180 97.68 180 96.36 180 95 C180.763125 94.896875 181.52625 94.79375 182.3125 94.6875 C185.21894395 93.94399108 186.03566029 93.15141968 188 91 C188.66 91 189.32 91 190 91 C190 90.34 190 89.68 190 89 C190.99 89 191.98 89 193 89 C193 88.34 193 87.68 193 87 C193.66 87 194.32 87 195 87 C195 84.69 195 82.38 195 80 C195.99 79.67 196.98 79.34 198 79 C198 76.03 198 73.06 198 70 C199.32 69.67 200.64 69.34 202 69 C202 56.79 202 44.58 202 32 C201.34 32 200.68 32 200 32 C200 31.34 200 30.68 200 30 C199.34 30 198.68 30 198 30 C197.67 28.35 197.34 26.7 197 25 C202.94 25 208.88 25 215 25 C215 24.34 215 23.68 215 23 C215.66 23 216.32 23 217 23 C217 22.01 217 21.02 217 20 C217.99 19.505 217.99 19.505 219 19 C219.46651207 16.87423218 219.46651207 16.87423218 219.625 14.4375 C219.69976562 13.61121094 219.77453125 12.78492188 219.8515625 11.93359375 C219.92503906 10.97646484 219.92503906 10.97646484 220 10 C220.99 10 221.98 10 223 10 C223 9.34 223 8.68 223 8 C223.66 8 224.32 8 225 8 C225 41.33 225 74.66 225 109 C150.75 109 76.5 109 0 109 C0 73.03 0 37.06 0 0 Z " fill="#020202" transform="translate(0,116)"/>
<path d="M0 0 C4.95 0 9.9 0 15 0 C15 1.65 15 3.3 15 5 C16.98 5 18.96 5 21 5 C21 6.32 21 7.64 21 9 C24.96 9 28.92 9 33 9 C33 10.98 33 12.96 33 15 C33.99 15 34.98 15 36 15 C36 18.96 36 22.92 36 27 C37.98 27 39.96 27 42 27 C42 31.95 42 36.9 42 42 C42.99 42 43.98 42 45 42 C45 42.99 45 43.98 45 45 C44.01 45 43.02 45 42 45 C42 49.95 42 54.9 42 60 C40.02 60 38.04 60 36 60 C36 62.97 36 65.94 36 69 C35.01 69 34.02 69 33 69 C33 69.99 33 70.98 33 72 C32.01 72 31.02 72 30 72 C30 72.99 30 73.98 30 75 C27.03 75 24.06 75 21 75 C21 76.65 21 78.3 21 80 C13.08 80 5.16 80 -3 80 C-3 78.35 -3 76.7 -3 75 C-5.97 75 -8.94 75 -12 75 C-12 73.02 -12 71.04 -12 69 C-14.31 69 -16.62 69 -19 69 C-19 66.03 -19 63.06 -19 60 C-20.65 60 -22.3 60 -24 60 C-24 55.05 -24 50.1 -24 45 C-24.99 45 -25.98 45 -27 45 C-27 39.06 -27 33.12 -27 27 C-26.01 27 -25.02 27 -24 27 C-24 23.04 -24 19.08 -24 15 C-22.35 15 -20.7 15 -19 15 C-19 14.01 -19 13.02 -19 12 C-17.68 12 -16.36 12 -15 12 C-15 10.68 -15 9.36 -15 8 C-11.37 8 -7.74 8 -4 8 C-4 7.01 -4 6.02 -4 5 C-2.68 5 -1.36 5 0 5 C0 3.35 0 1.7 0 0 Z " fill="#050505" transform="translate(54,131)"/>
<path d="M0 0 C4.62 0 9.24 0 14 0 C14 1.65 14 3.3 14 5 C15.98 5 17.96 5 20 5 C20 5.99 20 6.98 20 8 C24.95 8 29.9 8 35 8 C35 10.31 35 12.62 35 15 C35.99 15 36.98 15 38 15 C38 16.65 38 18.3 38 20 C38.99 20 39.98 20 41 20 C41 29.9 41 39.8 41 50 C40.01 50 39.02 50 38 50 C38 53.3 38 56.6 38 60 C37.01 60 36.02 60 35 60 C35 62.97 35 65.94 35 69 C33.02 69 31.04 69 29 69 C29 69.99 29 70.98 29 72 C28.01 72 27.02 72 26 72 C26 72.99 26 73.98 26 75 C23.69 75 21.38 75 19 75 C19 76.65 19 78.3 19 80 C10.42 80 1.84 80 -7 80 C-7 78.35 -7 76.7 -7 75 C-7.99 75 -8.98 75 -10 75 C-10 74.01 -10 73.02 -10 72 C-11.32 72 -12.64 72 -14 72 C-14 71.01 -14 70.02 -14 69 C-16.64 69 -19.28 69 -22 69 C-22 66.03 -22 63.06 -22 60 C-23.32 60 -24.64 60 -26 60 C-26 49.11 -26 38.22 -26 27 C-24.68 27 -23.36 27 -22 27 C-22 23.04 -22 19.08 -22 15 C-21.01 15 -20.02 15 -19 15 C-19 14.01 -19 13.02 -19 12 C-17.35 12 -15.7 12 -14 12 C-14 10.68 -14 9.36 -14 8 C-11.69 8 -9.38 8 -7 8 C-7 7.01 -7 6.02 -7 5 C-4.69 5 -2.38 5 0 5 C0 3.35 0 1.7 0 0 Z " fill="#030303" transform="translate(155,131)"/>
<path d="M0 0 C74.25 0 148.5 0 225 0 C225 18.81 225 37.62 225 57 C224.34 57 223.68 57 223 57 C223 56.34 223 55.68 223 55 C222.01 55 221.02 55 220 55 C220 50.71 220 46.42 220 42 C219.34 42 218.68 42 218 42 C216.64560332 39.29120665 216.93498549 36.99066732 217 34 C216.34 34 215.68 34 215 34 C215 33.34 215 32.68 215 32 C214.34 32 213.68 32 213 32 C212.67 30.68 212.34 29.36 212 28 C206.72 28 201.44 28 196 28 C196 28.66 196 29.32 196 30 C195.34 30 194.68 30 194 30 C194 30.66 194 31.32 194 32 C189.38 32 184.76 32 180 32 C180 27.38 180 22.76 180 18 C179.34 18 178.68 18 178 18 C178 17.34 178 16.68 178 16 C177.01 16 176.02 16 175 16 C175 14.68 175 13.36 175 12 C174.34 12 173.68 12 173 12 C172.67 10.68 172.34 9.36 172 8 C171.34 8 170.68 8 170 8 C170 7.34 170 6.68 170 6 C166.7 6 163.4 6 160 6 C160 5.01 160 4.02 160 3 C127.99 3 95.98 3 63 3 C63 3.99 63 4.98 63 6 C61.02 6 59.04 6 57 6 C57 6.66 57 7.32 57 8 C56.34 8 55.68 8 55 8 C55 8.66 55 9.32 55 10 C54.34 10 53.68 10 53 10 C52.67 10.99 52.34 11.98 52 13 C51.34 13 50.68 13 50 13 C49.67 15.97 49.34 18.94 49 22 C48.34 22 47.68 22 47 22 C47 22.66 47 23.32 47 24 C46.34 24 45.68 24 45 24 C45 26.64 45 29.28 45 32 C40.71 32 36.42 32 32 32 C31.67 30.68 31.34 29.36 31 28 C24.73 28 18.46 28 12 28 C12 28.66 12 29.32 12 30 C11.34 30 10.68 30 10 30 C10 32.31 10 34.62 10 37 C8.02 37.495 8.02 37.495 6 38 C5.67 40.31 5.34 42.62 5 45 C4.34 45 3.68 45 3 45 C3.01160156 46.20398437 3.02320313 47.40796875 3.03515625 48.6484375 C3.04453434 50.22395679 3.05363452 51.79947775 3.0625 53.375 C3.07087891 54.1690625 3.07925781 54.963125 3.08789062 55.78125 C3.11328125 61.7734375 3.11328125 61.7734375 2 64 C1.34 64 0.68 64 0 64 C0 42.88 0 21.76 0 0 Z " fill="#030303" transform="translate(0,0)"/>
<path d="M0 0 C26.07 0 52.14 0 79 0 C79 7.92 79 15.84 79 24 C79.99 24 80.98 24 82 24 C82 28.95 82 33.9 82 39 C54.94 39 27.88 39 0 39 C0 26.13 0 13.26 0 0 Z " fill="#030303" transform="translate(72,67)"/>
<path d="M0 0 C3.96 0 7.92 0 12 0 C12 0.99 12 1.98 12 3 C15.63 3 19.26 3 23 3 C23 12.9 23 22.8 23 33 C22.01 33 21.02 33 20 33 C20 50.82 20 68.64 20 87 C20.99 87 21.98 87 23 87 C23 88.98 23 90.96 23 93 C22.01 93 21.02 93 20 93 C20 94.32 20 95.64 20 97 C18.35 97 16.7 97 15 97 C15 98.65 15 100.3 15 102 C9.06 102 3.12 102 -3 102 C-3 99.03 -3 96.06 -3 93 C-3.99 93 -4.98 93 -6 93 C-6 88.05 -6 83.1 -6 78 C-7.32 78 -8.64 78 -10 78 C-10 63.15 -10 48.3 -10 33 C-9.01 33 -8.02 33 -7 33 C-7 27.06 -7 21.12 -7 15 C-5.68 15 -4.36 15 -3 15 C-3 12.69 -3 10.38 -3 8 C-2.01 8 -1.02 8 0 8 C0 5.36 0 2.72 0 0 Z " fill="#010101" transform="translate(15,34)"/>
<path d="M0 0 C2.64 0 5.28 0 8 0 C8 0.99 8 1.98 8 3 C8.99 3 9.98 3 11 3 C11 5.64 11 8.28 11 11 C12.32 11 13.64 11 15 11 C15 16.28 15 21.56 15 27 C16.65 27 18.3 27 20 27 C20 46.8 20 66.6 20 87 C18.35 87 16.7 87 15 87 C15 90.3 15 93.6 15 97 C13.68 97 12.36 97 11 97 C11 98.65 11 100.3 11 102 C5.06 102 -0.88 102 -7 102 C-7 100.35 -7 98.7 -7 97 C-7.99 97 -8.98 97 -10 97 C-10 95.68 -10 94.36 -10 93 C-11.65 93 -13.3 93 -15 93 C-15 92.34 -15 91.68 -15 91 C-13.35 91 -11.7 91 -10 91 C-10 65.92 -10 40.84 -10 15 C-11.65 15 -13.3 15 -15 15 C-15 11.04 -15 7.08 -15 3 C-10.05 3 -5.1 3 0 3 C0 2.01 0 1.02 0 0 Z " fill="#010101" transform="translate(200,34)"/>
<path d="M0 0 C7.59 0 15.18 0 23 0 C23 0.99 23 1.98 23 3 C31.91 3 40.82 3 50 3 C50 2.01 50 1.02 50 0 C56.93 0 63.86 0 71 0 C71 0.66 71 1.32 71 2 C69.02 2 67.04 2 65 2 C65 3.32 65 4.64 65 6 C62.36 6 59.72 6 57 6 C57 7.65 57 9.3 57 11 C55.68 11 54.36 11 53 11 C53 14.3 53 17.6 53 21 C52.01 21 51.02 21 50 21 C50 22.65 50 24.3 50 26 C48.35 26 46.7 26 45 26 C45 32.27 45 38.54 45 45 C43.68 45 42.36 45 41 45 C41 49.95 41 54.9 41 60 C42.32 60 43.64 60 45 60 C45 61.98 45 63.96 45 66 C46.65 66 48.3 66 50 66 C50 68.97 50 71.94 50 75 C42.41 75 34.82 75 27 75 C27 71.04 27 67.08 27 63 C27.99 63 28.98 63 30 63 C30 53.1 30 43.2 30 33 C28.68 33 27.36 33 26 33 C26 30.69 26 28.38 26 26 C25.01 26 24.02 26 23 26 C23 22.04 23 18.08 23 14 C22.01 14 21.02 14 20 14 C20 13.01 20 12.02 20 11 C18.35 11 16.7 11 15 11 C15 9.35 15 7.7 15 6 C14.01 6 13.02 6 12 6 C12 4.68 12 3.36 12 2 C8.04 2 4.08 2 0 2 C0 1.34 0 0.68 0 0 Z " fill="#020202" transform="translate(76,125)"/>
<path d="M0 0 C0.99 0 1.98 0 3 0 C3 2.31 3 4.62 3 7 C2.01 7 1.02 7 0 7 C0 14.59 0 22.18 0 30 C1.32 30 2.64 30 4 30 C4 32.31 4 34.62 4 37 C5.65 37 7.3 37 9 37 C9 37.99 9 38.98 9 40 C9.99 40 10.98 40 12 40 C12 41.65 12 43.3 12 45 C14.31 45 16.62 45 19 45 C19 46.32 19 47.64 19 49 C23.62 49 28.24 49 33 49 C33 46.03 33 43.06 33 40 C34.65 40 36.3 40 38 40 C38 33.73 38 27.46 38 21 C39.32 21 40.64 21 42 21 C42 29.25 42 37.5 42 46 C41.01 46 40.02 46 39 46 C39 46.99 39 47.98 39 49 C37.35 49 35.7 49 34 49 C34 49.99 34 50.98 34 52 C28.72 52 23.44 52 18 52 C18 51.01 18 50.02 18 49 C15.69 49 13.38 49 11 49 C11 48.01 11 47.02 11 46 C10.01 46 9.02 46 8 46 C8 44.02 8 42.04 8 40 C6.35 40 4.7 40 3 40 C3 39.01 3 38.02 3 37 C2.01 37 1.02 37 0 37 C0 35.02 0 33.04 0 31 C-1.32 31 -2.64 31 -4 31 C-4 21.76 -4 12.52 -4 3 C-2.68 3 -1.36 3 0 3 C0 2.01 0 1.02 0 0 Z " fill="#C9C9C9" transform="translate(42,151)"/>
<path d="M0 0 C15.51 0 31.02 0 47 0 C47 0.99 47 1.98 47 3 C49.97 3 52.94 3 56 3 C56 3.99 56 4.98 56 6 C36.2 6 16.4 6 -4 6 C-4 5.01 -4 4.02 -4 3 C-2.68 3 -1.36 3 0 3 C0 2.01 0 1.02 0 0 Z " fill="#000000" transform="translate(88,212)"/>
<path d="M0 0 C1.32 0 2.64 0 4 0 C4 8.25 4 16.5 4 25 C3.01 25 2.02 25 1 25 C1 25.99 1 26.98 1 28 C-0.65 28 -2.3 28 -4 28 C-4 28.99 -4 29.98 -4 31 C-8.95 31 -13.9 31 -19 31 C-19 30.01 -19 29.02 -19 28 C-14.38 28 -9.76 28 -5 28 C-5 25.03 -5 22.06 -5 19 C-3.35 19 -1.7 19 0 19 C0 12.73 0 6.46 0 0 Z " fill="#E5E5E5" transform="translate(80,172)"/>
<path d="M0 0 C1.32 0 2.64 0 4 0 C4 5.28 4 10.56 4 16 C3.01 16 2.02 16 1 16 C1 16.99 1 17.98 1 19 C-1.31 19 -3.62 19 -6 19 C-6 21.97 -6 24.94 -6 28 C-8.97 28 -11.94 28 -15 28 C-15 26.68 -15 25.36 -15 24 C-14.01 24 -13.02 24 -12 24 C-12 22.35 -12 20.7 -12 19 C-10.35 19 -8.7 19 -7 19 C-7 18.01 -7 17.02 -7 16 C-5.68 16 -4.36 16 -3 16 C-3 14.68 -3 13.36 -3 12 C-2.01 12 -1.02 12 0 12 C0 8.04 0 4.08 0 0 Z " fill="#DEDEDE" transform="translate(181,172)"/>
<path d="M0 0 C0.99 0 1.98 0 3 0 C3 2.31 3 4.62 3 7 C2.01 7 1.02 7 0 7 C0 14.59 0 22.18 0 30 C-0.99 30 -1.98 30 -3 30 C-3 21.09 -3 12.18 -3 3 C-2.01 3 -1.02 3 0 3 C0 2.01 0 1.02 0 0 Z " fill="#FBFBFB" transform="translate(42,151)"/>
<path d="M0 0 C1.32 0 2.64 0 4 0 C4 2.97 4 5.94 4 9 C9.94 9 15.88 9 22 9 C22 9.99 22 10.98 22 12 C15.73 12 9.46 12 3 12 C3 11.01 3 10.02 3 9 C2.01 9 1.02 9 0 9 C0 6.03 0 3.06 0 0 Z " fill="#FFFFFF" transform="translate(144,191)"/>
<path d="M0 0 C5.28 0 10.56 0 16 0 C16 1.65 16 3.3 16 5 C10.72 5 5.44 5 0 5 C0 3.35 0 1.7 0 0 Z " fill="#F9F9F9" transform="translate(45,146)"/>
<path d="M0 0 C3.96 0 7.92 0 12 0 C12 1.65 12 3.3 12 5 C8.04 5 4.08 5 0 5 C0 3.35 0 1.7 0 0 Z " fill="#FEFEFE" transform="translate(166,146)"/>
<path d="M0 0 C0.33 0 0.66 0 1 0 C1 8.91 1 17.82 1 27 C3.31 27 5.62 27 8 27 C8 29.31 8 31.62 8 34 C6.68 34 5.36 34 4 34 C4 32.02 4 30.04 4 28 C2.68 28 1.36 28 0 28 C0 18.76 0 9.52 0 0 Z " fill="#7A7A7A" transform="translate(38,154)"/>
<path d="M0 0 C1.32 0 2.64 0 4 0 C4 2.64 4 5.28 4 8 C3.01 8 2.02 8 1 8 C1 9.32 1 10.64 1 12 C-0.32 12 -1.64 12 -3 12 C-3 10.68 -3 9.36 -3 8 C-2.01 8 -1.02 8 0 8 C0 5.36 0 2.72 0 0 Z " fill="#B0B0B0" transform="translate(147,158)"/>
<path d="M0 0 C1.32 0 2.64 0 4 0 C4 0.99 4 1.98 4 3 C4.99 3 5.98 3 7 3 C7 5.64 7 8.28 7 11 C5.68 11 4.36 11 3 11 C3 8.69 3 6.38 3 4 C2.01 4 1.02 4 0 4 C0 2.68 0 1.36 0 0 Z " fill="#C6C6C6" transform="translate(178,151)"/>
<path d="M0 0 C4.62 0 9.24 0 14 0 C14 0.99 14 1.98 14 3 C9.38 3 4.76 3 0 3 C0 2.01 0 1.02 0 0 Z " fill="#FFFFFF" transform="translate(61,200)"/>
<path d="M0 0 C1.32 0 2.64 0 4 0 C4 3.96 4 7.92 4 12 C3.67 11.01 3.34 10.02 3 9 C2.01 9 1.02 9 0 9 C0 6.03 0 3.06 0 0 Z " fill="#CDCDCD" transform="translate(144,191)"/>
<path d="M0 0 C1.98 0 3.96 0 6 0 C6 1.32 6 2.64 6 4 C4.02 4 2.04 4 0 4 C0 2.68 0 1.36 0 0 Z " fill="#CCCCCC" transform="translate(75,166)"/>
<path d="M0 0 C0.99 0 1.98 0 3 0 C3 2.64 3 5.28 3 8 C2.01 8 1.02 8 0 8 C0 5.36 0 2.72 0 0 Z " fill="#FFFFFF" transform="translate(148,158)"/>
<path d="M0 0 C1.98 0 3.96 0 6 0 C6 0.99 6 1.98 6 3 C4.02 3 2.04 3 0 3 C0 2.01 0 1.02 0 0 Z " fill="#FFFFFF" transform="translate(54,197)"/>
<path d="M0 0 C0.99 0 1.98 0 3 0 C3 1.98 3 3.96 3 6 C2.01 6 1.02 6 0 6 C0 4.02 0 2.04 0 0 Z " fill="#F8F8F8" transform="translate(42,182)"/>
</svg>
